<svg width="22" height="25" viewBox="0 0 22 25" fill="none" xmlns="http://www.w3.org/2000/svg">
<path d="M2.42419 24.1461C0.829193 24.1461 0.188776 21.2945 0.0558596 20.1586C-0.0872345 19.0559 0.0456266 17.9349 0.442526 16.8961C0.616968 16.4019 0.917019 15.9615 1.31319 15.6183C1.70936 15.2751 2.18801 15.0409 2.70211 14.9386C4.11586 14.697 5.11878 15.5428 6.39961 15.8328C6.64021 15.91 6.89671 15.9236 7.14411 15.8721C7.3915 15.8207 7.62134 15.706 7.81121 15.5393C8.00107 15.3725 8.14448 15.1594 8.22745 14.9207C8.31042 14.6821 8.33011 14.426 8.28461 14.1774C7.75294 12.0991 3.97086 12.0628 2.42419 12.0628C2.42419 9.81531 4.88919 9.52531 6.65336 9.69448C7.69994 9.79557 8.73047 10.0228 9.72253 10.3711C10.3267 10.5766 11.0275 11.0961 11.6921 11.0478C12.695 10.9632 12.9004 9.92406 12.4654 9.16281C11.4142 7.37448 8.42961 7.22948 6.65336 7.22948C6.65336 4.81281 8.74378 4.35364 10.7496 4.71615C11.7853 4.92004 12.7946 5.24026 13.7584 5.67073C14.3746 5.93656 15.1117 6.44406 15.7884 6.21448C17.5284 5.68281 15.7159 3.82198 14.9425 3.37489C14.3998 3.07539 13.8239 2.84019 13.2267 2.67406C12.5742 2.48073 11.7767 2.55323 12.3688 1.79198C13.2946 0.975163 14.4433 0.453428 15.6675 0.293645C17.9513 -0.238021 21.105 -0.334688 21.6609 2.54114C21.8461 4.05948 21.4817 5.59396 20.6338 6.86698C18.3821 10.7171 15.5953 14.2281 12.3567 17.2949C10.6411 19.0536 8.78184 20.6662 6.79836 22.1161C5.59003 22.9861 3.99503 24.1461 2.42419 24.1461Z" fill="#006492"/>
</svg>
