<svg width="26" height="22" viewBox="0 0 26 22" fill="none" xmlns="http://www.w3.org/2000/svg">
<path fill-rule="evenodd" clip-rule="evenodd" d="M17.7871 0C18.5069 2.44605e-05 19.2126 0.200478 19.825 0.578905C20.4373 0.957332 20.9323 1.49879 21.2543 2.14261L23.0454 5.72355C23.3607 5.59432 23.6709 5.45475 23.9758 5.30484C24.2826 5.15164 24.6376 5.12657 24.9629 5.23514C25.2881 5.34372 25.5569 5.57704 25.7101 5.88379C25.8633 6.19054 25.8884 6.54558 25.7798 6.87082C25.6712 7.19605 25.4379 7.46484 25.1311 7.61804C24.8205 7.75629 24.5082 7.89069 24.1942 8.02124L25.4361 10.5063C25.7057 11.0451 25.8459 11.6394 25.8458 12.2418V15.5075C25.8458 16.0529 25.7307 16.5922 25.508 17.0901C25.2853 17.5881 24.96 18.0334 24.5535 18.397V20.0305C24.5535 20.5446 24.3493 21.0376 23.9857 21.4012C23.6222 21.7647 23.1292 21.9689 22.6151 21.9689C22.1009 21.9689 21.6079 21.7647 21.2444 21.4012C20.8808 21.0376 20.6766 20.5446 20.6766 20.0305V19.3843H5.16915V20.0305C5.16915 20.5446 4.96493 21.0376 4.6014 21.4012C4.23787 21.7647 3.74483 21.9689 3.23072 21.9689C2.71662 21.9689 2.22357 21.7647 1.86004 21.4012C1.49652 21.0376 1.29229 20.5446 1.29229 20.0305V18.397C0.498823 17.6863 0 16.655 0 15.5075V12.2406C0.000241501 11.6389 0.140493 11.0456 0.409655 10.5076L1.64121 8.04191C1.32933 7.91096 1.02134 7.7701 0.71722 7.61933C0.412022 7.46414 0.180028 7.19523 0.0712473 6.87058C-0.0375337 6.54593 -0.0143896 6.19154 0.13569 5.88379C0.211494 5.73185 0.316497 5.59635 0.444698 5.48501C0.572898 5.37368 0.721783 5.2887 0.882842 5.23493C1.0439 5.18116 1.21398 5.15967 1.38335 5.17166C1.55272 5.18366 1.71807 5.22891 1.86994 5.30484C2.17578 5.45561 2.48593 5.59518 2.80039 5.72355L4.5915 2.14391C4.91334 1.49984 5.40819 0.958119 6.02058 0.579455C6.63297 0.200791 7.33871 0.000144457 8.05871 0H17.7871ZM7.10759 11.6306C6.59348 11.6306 6.10043 11.8348 5.73691 12.1984C5.37338 12.5619 5.16915 13.0549 5.16915 13.569C5.16915 14.0831 5.37338 14.5762 5.73691 14.9397C6.10043 15.3032 6.59348 15.5075 7.10759 15.5075C7.62169 15.5075 8.11474 15.3032 8.47827 14.9397C8.84179 14.5762 9.04602 14.0831 9.04602 13.569C9.04602 13.0549 8.84179 12.5619 8.47827 12.1984C8.11474 11.8348 7.62169 11.6306 7.10759 11.6306ZM18.7382 11.6306C18.2241 11.6306 17.731 11.8348 17.3675 12.1984C17.004 12.5619 16.7998 13.0549 16.7998 13.569C16.7998 14.0831 17.004 14.5762 17.3675 14.9397C17.731 15.3032 18.2241 15.5075 18.7382 15.5075C19.2523 15.5075 19.7453 15.3032 20.1089 14.9397C20.4724 14.5762 20.6766 14.0831 20.6766 13.569C20.6766 13.0549 20.4724 12.5619 20.1089 12.1984C19.7453 11.8348 19.2523 11.6306 18.7382 11.6306ZM17.7871 2.58458H8.05871C7.84601 2.58455 7.63659 2.63702 7.44903 2.73733C7.26147 2.83765 7.10158 2.98271 6.98353 3.15965L6.90341 3.29921L5.2622 6.57904C7.26266 7.17866 9.95838 7.75373 12.9229 7.75373C15.691 7.75373 18.2226 7.25232 20.1726 6.69793L20.5823 6.57904L18.9424 3.29921C18.8473 3.10901 18.7067 2.94521 18.5331 2.82235C18.3595 2.6995 18.1583 2.62137 17.9473 2.59492L17.7884 2.58458H17.7871Z" fill="#006492"/>
</svg>
