<svg width="26" height="25" viewBox="0 0 26 25" fill="none" xmlns="http://www.w3.org/2000/svg">
<path d="M8.25494 0.0200574C9.77911 -0.206609 11.3937 1.51339 11.8587 3.88672C12.3237 6.24672 11.4841 8.35339 9.95994 8.59339C8.44869 8.83339 6.82119 7.11339 6.34327 4.74006C5.86536 2.38006 6.73077 0.273391 8.25494 0.0200574ZM17.4904 0.0200574C19.0274 0.273391 19.8799 2.38006 19.4279 4.74006C18.937 7.11339 17.3224 8.83339 15.7983 8.59339C14.2612 8.35339 13.4216 6.24672 13.8995 3.88672C14.3645 1.51339 15.9791 -0.206609 17.4904 0.0200574ZM1.34452 6.15339C2.81702 5.50006 4.81911 6.68672 5.86536 8.75339C6.84702 10.8601 6.51119 13.0734 5.05161 13.7267C3.59202 14.3801 1.60286 13.2067 0.582441 11.1134C-0.437976 9.02006 -0.0763091 6.79339 1.34452 6.15339ZM24.5945 6.15339C26.0154 6.79339 26.377 9.02006 25.3566 11.1134C24.3362 13.2067 22.347 14.3801 20.8874 13.7267C19.4279 13.0734 19.092 10.8601 20.0737 8.75339C21.1199 6.68672 23.122 5.50006 24.5945 6.15339ZM22.4374 20.5267C22.4891 21.7801 21.5591 23.1667 20.4483 23.6867C18.1362 24.7801 15.3979 22.5134 12.8274 22.5134C10.257 22.5134 7.49286 24.8734 5.21952 23.6867C3.92786 23.0334 3.03661 21.3001 3.20452 19.8601C3.43702 17.8734 5.74911 16.8067 7.11827 15.3534C8.93952 13.4734 10.2312 9.94006 12.8274 9.94006C15.4108 9.94006 16.7799 13.4201 18.5237 15.3534C19.9574 16.9801 22.347 18.3534 22.4374 20.5267Z" fill="#006492"/>
</svg>
