<svg width="19" height="19" viewBox="0 0 19 19" fill="none" xmlns="http://www.w3.org/2000/svg">
<path d="M9.49984 11.3208C10.2123 10.661 10.7665 10.1333 11.1623 9.73742C11.5582 9.34159 11.8682 9.01172 12.0925 8.74784C12.3037 8.48395 12.4522 8.23985 12.5383 8.01554C12.6243 7.79124 12.667 7.54714 12.6665 7.28325C12.6665 6.80825 12.495 6.39922 12.1519 6.05617C11.8089 5.71311 11.3998 5.54158 10.9248 5.54158C10.6478 5.54158 10.3804 5.59753 10.1229 5.70942C9.86532 5.82131 9.65764 5.97647 9.49984 6.17492C9.3415 5.977 9.13699 5.8221 8.8863 5.71021C8.6356 5.59832 8.36511 5.54211 8.07484 5.54158C7.59984 5.54158 7.19081 5.71311 6.84775 6.05617C6.5047 6.39922 6.33317 6.80825 6.33317 7.28325C6.33317 7.56033 6.37275 7.80443 6.45192 8.01554C6.53109 8.22665 6.67623 8.46415 6.88734 8.72804C7.11164 8.99193 7.41511 9.32179 7.79775 9.71763C8.18039 10.1135 8.74775 10.6478 9.49984 11.3208ZM9.49984 17.4166C7.37553 15.6089 5.78903 13.9301 4.74034 12.38C3.69164 10.8299 3.16703 9.39489 3.1665 8.07492C3.1665 6.09575 3.80327 4.51902 5.0768 3.34471C6.35032 2.1704 7.82467 1.58325 9.49984 1.58325C11.175 1.58325 12.6496 2.1704 13.9237 3.34471C15.1977 4.51902 15.8342 6.09575 15.8332 8.07492C15.8332 9.39436 15.3088 10.8294 14.2601 12.38C13.2114 13.9306 11.6247 15.6095 9.49984 17.4166Z" fill="#D23393"/>
</svg>
