<svg width="29" height="22" viewBox="0 0 29 22" fill="none" xmlns="http://www.w3.org/2000/svg">
<path d="M14.5 22C13.6078 22 12.8537 21.6873 12.2376 21.0618C11.6216 20.4363 11.3136 19.6706 11.3136 18.7647C11.3136 17.8588 11.6216 17.0931 12.2376 16.4676C12.8537 15.8422 13.6078 15.5294 14.5 15.5294C15.3922 15.5294 16.1463 15.8422 16.7624 16.4676C17.3784 17.0931 17.6864 17.8588 17.6864 18.7647C17.6864 19.6706 17.3784 20.4363 16.7624 21.0618C16.1463 21.6873 15.3922 22 14.5 22ZM14.5 7.76471C16.0932 7.76471 17.607 8.02353 19.0413 8.54118C20.4756 9.05882 21.7766 9.77059 22.9441 10.6765C23.3689 11 23.5869 11.4262 23.5979 11.9551C23.609 12.4839 23.4229 12.942 23.0397 13.3294C22.6785 13.6961 22.2324 13.885 21.7014 13.8962C21.1703 13.9075 20.6923 13.7616 20.2675 13.4588C19.4602 12.898 18.568 12.4559 17.5909 12.1324C16.6137 11.8088 15.5834 11.6471 14.5 11.6471C13.4166 11.6471 12.3863 11.8088 11.4091 12.1324C10.432 12.4559 9.53977 12.898 8.73254 13.4588C8.30768 13.7608 7.82971 13.901 7.29864 13.8794C6.76756 13.8578 6.32146 13.6637 5.96033 13.2971C5.5992 12.9088 5.41863 12.4507 5.41863 11.9227C5.41863 11.3947 5.63106 10.9685 6.05592 10.6441C7.22428 9.73824 8.52563 9.03165 9.95995 8.52435C11.3943 8.01706 12.9076 7.76384 14.5 7.76471ZM14.5 0C17.1554 0 19.6569 0.442157 22.0047 1.32647C24.3525 2.21078 26.4606 3.46177 28.3292 5.07941C28.754 5.44608 28.9771 5.89902 28.9983 6.43824C29.0196 6.97745 28.839 7.44118 28.4566 7.82941C28.0955 8.19608 27.6494 8.38502 27.1183 8.39624C26.5872 8.40745 26.1093 8.24008 25.6844 7.89412C24.1549 6.62157 22.4398 5.63502 20.539 4.93447C18.6381 4.23392 16.6251 3.88322 14.5 3.88235C12.3749 3.88149 10.3623 4.2322 8.46233 4.93447C6.56235 5.63675 4.84677 6.62329 3.31558 7.89412C2.89072 8.23922 2.41275 8.40659 1.88168 8.39624C1.35061 8.38588 0.904503 8.19694 0.543373 7.82941C0.160999 7.44118 -0.0195659 6.97745 0.00167708 6.43824C0.02292 5.89902 0.245971 5.44608 0.67083 5.07941C2.54021 3.46177 4.64879 2.21078 6.99656 1.32647C9.34433 0.442157 11.8455 0 14.5 0Z" fill="#006492"/>
</svg>
